<svg width="50" height="50" viewBox="0 0 50 50" fill="none" xmlns="http://www.w3.org/2000/svg">
<rect width="50" height="50" rx="8" fill="#2405F2"/>
<mask id="mask0_706_699" style="mask-type:alpha" maskUnits="userSpaceOnUse" x="0" y="0" width="50" height="50">
<rect width="50" height="50" rx="8" fill="#5C5E84"/>
</mask>
<g mask="url(#mask0_706_699)">
<rect x="-26" y="27" width="50" height="50" rx="8" fill="#FCD980"/>
<rect x="8" y="-9" width="50" height="50" rx="8" fill="#5239FA"/>
</g>
<path d="M16.08 24.268C16.08 22.192 16.428 20.572 17.124 19.408C17.832 18.232 19.044 17.644 20.76 17.644C22.476 17.644 23.682 18.232 24.378 19.408C25.086 20.572 25.44 22.192 25.44 24.268C25.44 26.368 25.086 28.012 24.378 29.2C23.682 30.376 22.476 30.964 20.76 30.964C19.044 30.964 17.832 30.376 17.124 29.2C16.428 28.012 16.08 26.368 16.08 24.268ZM23.424 24.268C23.424 23.296 23.358 22.474 23.226 21.802C23.106 21.13 22.854 20.584 22.47 20.164C22.086 19.732 21.516 19.516 20.76 19.516C20.004 19.516 19.434 19.732 19.05 20.164C18.666 20.584 18.408 21.13 18.276 21.802C18.156 22.474 18.096 23.296 18.096 24.268C18.096 25.276 18.156 26.122 18.276 26.806C18.396 27.49 18.648 28.042 19.032 28.462C19.428 28.882 20.004 29.092 20.76 29.092C21.516 29.092 22.086 28.882 22.47 28.462C22.866 28.042 23.124 27.49 23.244 26.806C23.364 26.122 23.424 25.276 23.424 24.268ZM27.5753 21.118C27.6473 20.002 28.0733 19.132 28.8533 18.508C29.6453 17.884 30.6533 17.572 31.8773 17.572C32.7173 17.572 33.4433 17.722 34.0553 18.022C34.6673 18.322 35.1293 18.73 35.4413 19.246C35.7533 19.762 35.9093 20.344 35.9093 20.992C35.9093 21.736 35.7113 22.372 35.3153 22.9C34.9193 23.428 34.4453 23.782 33.8933 23.962V24.034C34.6013 24.25 35.1533 24.646 35.5493 25.222C35.9453 25.786 36.1433 26.512 36.1433 27.4C36.1433 28.108 35.9813 28.738 35.6573 29.29C35.3333 29.842 34.8533 30.28 34.2173 30.604C33.5813 30.916 32.8193 31.072 31.9313 31.072C30.6353 31.072 29.5673 30.742 28.7273 30.082C27.8993 29.41 27.4553 28.45 27.3953 27.202H29.3753C29.4233 27.838 29.6693 28.36 30.1133 28.768C30.5573 29.164 31.1573 29.362 31.9133 29.362C32.6453 29.362 33.2093 29.164 33.6053 28.768C34.0013 28.36 34.1993 27.838 34.1993 27.202C34.1993 26.362 33.9293 25.768 33.3893 25.42C32.8613 25.06 32.0453 24.88 30.9413 24.88H30.4733V23.188H30.9593C31.9313 23.176 32.6693 23.014 33.1733 22.702C33.6893 22.39 33.9473 21.898 33.9473 21.226C33.9473 20.65 33.7613 20.194 33.3893 19.858C33.0173 19.51 32.4893 19.336 31.8053 19.336C31.1333 19.336 30.6113 19.51 30.2393 19.858C29.8673 20.194 29.6453 20.614 29.5733 21.118H27.5753Z" fill="white"/>
</svg>
